<?xml version="1.0" standalone="no"?>
<!DOCTYPE svg PUBLIC "-//W3C//DTD SVG 20010904//EN"
 "http://www.w3.org/TR/2001/REC-SVG-20010904/DTD/svg10.dtd">
<svg version="1.0" xmlns="http://www.w3.org/2000/svg"
 width="600.000000pt" height="600.000000pt" viewBox="0 0 600.000000 600.000000"
 preserveAspectRatio="xMidYMid meet">

<g transform="translate(0.000000,600.000000) scale(0.100000,-0.100000)"
fill="#000000" stroke="none">
<path d="M2920 5373 c-64 -11 -121 -37 -146 -66 -15 -18 -47 -72 -70 -121 -45
-91 -63 -122 -45 -74 25 65 84 180 108 210 17 20 19 26 7 15 -11 -9 -23 -15
-26 -12 -9 9 -60 -81 -110 -195 -79 -178 -218 -513 -215 -516 2 -2 34 66 71
152 179 407 1 -57 -309 -806 -232 -559 -324 -774 -332 -766 -2 2 41 115 97
251 55 137 98 250 96 252 -2 2 -21 -40 -43 -94 -22 -54 -136 -330 -253 -613
116 -283 275 -672 351 -863 265 -662 333 -791 470 -892 78 -57 143
-81 317 -116 147 -30 181 -44 269 -116 l-43 -34 2 -87 1 -87 6 87 c3 47 8
88 11 90 3 2 28 9 55 15 28 7 64 15 80 19 17 4 39 6 50 5 17 -2 18 0 5 9 -12
9 -7 10 19 5 23 -5 31 -4 27 4 -4 6 -2 9 7 5 14 -5 204 65 241 89 12 8 48 31
80 52 l59 38 -23 -33 c-24 -34 -73 -73 -133 -105 -21 -11 -37 -27 -37 -37 0
-20 -12 -28 -54 -39 -34 -9 91 -2 134 7 25 6 24 6 -8 20 -40 16 -38 30 10 64
19 14 50 36 68 49 19 14 30 20 26 13 -12 -19 9 -14 29 8 10 11 21 18 25 15 12
8 111 87 143 139 85 133 314 675 545 1291 120 318 299 770 550 1385 90 223
186 464 212 535 92 252 304 712 354 772 27 32 100 64 145 62 21 0 17 -4 -19
-17 -25 -9 -51 -21 -58 -25 -23 -15 -12 -27 20 -20 17 3 29 2 26 -3 -3 -5 -31
-53 -62 -106 -31 -53 -73 -132 -92 -175 -20 -43 -61 -130 -92 -193 -124 -261
-227 -498 -219 -507 2 -2 17 27 32 64 34 80 137 295 162 338 10 17 45 66 77
110 33 44 83 125 111 180 92 180 121 213 218 246 l52 17 -28 11 c-16 6 -39 11
-53 11 -13 0 -24 4 -24 8 0 22 29 32 94 32 72 0 80 6 24 21 -25 6 -15 8 39 5
57 -3 70 0 66 10 -4 11 -33 14 -132 13 -69 -1 -137 -4 -151 -6z"/>
<path d="M3235 5361 c24 -10 47 -36 68 -76 9 -16 16 -25 16 -20 0 6 -6 21 -14
35 -17 31 -19 44 -3 34 7 -5 8 -3 4 5 -5 7 -10 10 -13 7 -3 -3 -15 1 -27 9
-11 8 -27 15 -36 14 -10 0 -9 -3 5 -8z"/>
<path d="M3331 5225 c0 -5 8 -26 19 -45 11 -19 19 -30 19 -25 0 6 -8 26 -19
45 -11 19 -19 31 -19 25z"/>
<path d="M3371 5135 c0 -5 6 -21 14 -35 8 -14 14 -20 14 -15 0 6 -6 21 -14 35
-8 14 -14 21 -14 15z"/>
<path d="M3400 5065 c0 -5 5 -17 10 -25 5 -8 10 -10 10 -5 0 6 -5 17 -10 25
-5 8 -10 11 -10 5z"/>
<path d="M3430 4995 c0 -5 5 -17 10 -25 5 -8 10 -10 10 -5 0 6 -5 17 -10 25
-5 8 -10 11 -10 5z"/>
<path d="M3451 4945 c0 -5 6 -21 14 -35 8 -14 14 -20 14 -15 0 6 -6 21 -14 35
-8 14 -14 21 -14 15z"/>
<path d="M3500 4825 c0 -5 5 -17 10 -25 5 -8 10 -10 10 -5 0 6 -5 17 -10 25
-5 8 -10 11 -10 5z"/>
<path d="M2402 4575 c-17 -37 -14 -45 4 -12 9 16 14 31 11 33 -2 2 -9 -7 -15
-21z"/>
... (truncated for brevity, identical to public/favicon.svg)
</g>
</svg>
