<?xml version="1.0" standalone="no"?>
<!DOCTYPE svg PUBLIC "-//W3C//DTD SVG 20010904//EN"
 "http://www.w3.org/TR/2001/REC-SVG-20010904/DTD/svg10.dtd">
<svg version="1.0" xmlns="http://www.w3.org/2000/svg"
 width="600.000000pt" height="600.000000pt" viewBox="0 0 600.000000 600.000000"
 preserveAspectRatio="xMidYMid meet">

<g transform="translate(0.000000,600.000000) scale(0.100000,-0.100000)"
fill="#000000" stroke="none">
<path d="M2920 5373 c-64 -11 -121 -37 -146 -66 -15 -18 -47 -72 -70 -121 -45
-91 -63 -122 -45 -74 25 65 84 180 108 210 17 20 19 26 7 15 -11 -9 -23 -15
-26 -12 -9 9 -60 -81 -110 -195 -79 -178 -218 -513 -215 -516 2 -2 34 66 71
152 179 407 1 -57 -309 -806 -232 -559 -324 -774 -332 -766 -2 2 41 115 97
251 55 137 98 250 96 252 -2 2 -21 -40 -43 -94 -22 -54 -136 -330 -253 -613
116 -283 275 -672 351 -863 265 -662 333 -791 470 -892 78 -57 143
-81 317 -116 147 -30 181 -44 269 -116 l-43 -34 2 -87 1 -87 6 87 c3 47 8
88 11 90 3 2 28 9 55 15 28 7 64 15 80 19 17 4 39 6 50 5 17 -2 18 0 5 9 -12
9 -7 10 19 5 23 -5 31 -4 27 4 -4 6 -2 9 7 5 14 -5 204 65 241 89 12 8 48 31
80 52 l59 38 -23 -33 c-24 -34 -73 -73 -133 -105 -21 -11 -37 -27 -37 -37 0
-20 -12 -28 -54 -39 -34 -9 91 -2 134 7 25 6 24 6 -8 20 -40 16 -38 30 10 64
19 14 50 36 68 49 19 14 30 20 26 13 -12 -19 9 -14 29 8 10 11 21 18 25 15 12
8 111 87 143 139 85 133 314 675 545 1291 120 318 299 770 550 1385 90 223
186 464 212 535 92 252 304 712 354 772 27 32 100 64 145 62 21 0 17 -4 -19
-17 -25 -9 -51 -21 -58 -25 -23 -15 -12 -27 20 -20 17 3 29 2 26 -3 -3 -5 -31
-53 -62 -106 -31 -53 -73 -132 -92 -175 -20 -43 -61 -130 -92 -193 -124 -261
-227 -498 -219 -507 2 -2 17 27 32 64 34 80 137 295 162 338 10 17 45 66 77
110 33 44 83 125 111 180 92 180 121 213 218 246 l52 17 -28 11 c-16 6 -39 11
-53 11 -13 0 -24 4 -24 8 0 22 29 32 94 32 72 0 80 6 24 21 -25 6 -15 8 39 5
57 -3 70 0 66 10 -4 11 -33 14 -132 13 -69 -1 -137 -4 -151 -6z"/>
<path d="M3235 5361 c24 -10 47 -36 68 -76 9 -16 16 -25 16 -20 0 6 -6 21 -14
35 -17 31 -19 44 -3 34 7 -5 8 -3 4 5 -5 7 -10 10 -13 7 -3 -3 -15 1 -27 9
-11 8 -27 15 -36 14 -10 0 -9 -3 5 -8z"/>
<path d="M3331 5225 c0 -5 8 -26 19 -45 11 -19 19 -30 19 -25 0 6 -8 26 -19
45 -11 19 -19 31 -19 25z"/>
<path d="M3371 5135 c0 -5 6 -21 14 -35 8 -14 14 -20 14 -15 0 6 -6 21 -14 35
-8 14 -14 21 -14 15z"/>
<path d="M3400 5065 c0 -5 5 -17 10 -25 5 -8 10 -10 10 -5 0 6 -5 17 -10 25
-5 8 -10 11 -10 5z"/>
<path d="M3430 4995 c0 -5 5 -17 10 -25 5 -8 10 -10 10 -5 0 6 -5 17 -10 25
-5 8 -10 11 -10 5z"/>
<path d="M3451 4945 c0 -5 6 -21 14 -35 8 -14 14 -20 14 -15 0 6 -6 21 -14 35
-8 14 -14 21 -14 15z"/>
<path d="M3500 4825 c0 -5 5 -17 10 -25 5 -8 10 -10 10 -5 0 6 -5 17 -10 25
-5 8 -10 11 -10 5z"/>
<path d="M2402 4575 c-17 -37 -14 -45 4 -12 9 16 14 31 11 33 -2 2 -9 -7 -15
-21z"/>
<path d="M2376 4515 c-9 -26 -7 -32 5 -12 6 10 9 21 6 23 -2 3 -7 -2 -11 -11z"/>
<path d="M2652 4500 c-27 -26 -28 -40 -2 -47 23 -6 33 -32 24 -66 -5 -23 -3
-25 18 -20 12 3 29 11 36 16 8 6 28 11 45 11 29 1 32 4 30 31 -3 39 -62 95
-101 95 -16 0 -38 -9 -50 -20z"/>
<path d="M2356 4465 c-9 -26 -7 -32 5 -12 6 10 9 21 6 23 -2 3 -7 -2 -11 -11z"/>
<path d="M2332 4405 c-17 -37 -14 -45 4 -12 9 16 14 31 11 33 -2 2 -9 -7 -15
-21z"/>
<path d="M2306 4345 c-9 -26 -7 -32 5 -12 6 10 9 21 6 23 -2 3 -7 -2 -11 -11z"/>
<path d="M2286 4295 c-9 -26 -7 -32 5 -12 6 10 9 21 6 23 -2 3 -7 -2 -11 -11z"/>
<path d="M2416 4283 c-6 -14 -5 -15 5 -6 7 7 10 15 7 18 -3 3 -9 -2 -12 -12z"/>
<path d="M2650 4261 c0 -23 -35 -30 -42 -9 -8 24 -38 -3 -68 -61 -17 -34 -30
-64 -29 -67 0 -4 -4 -10 -11 -14 -6 -4 -13 -20 -16 -36 -8 -46 -15 -64 -24
-64 -5 0 -7 -6 -4 -14 3 -8 1 -17 -5 -21 -6 -3 -11 -13 -11 -22 0 -8 -6 -29
-14 -46 -19 -42 -236 -604 -236 -611 0 -4 -8 -25 -19 -49 -54 -120 -211 -574
-211 -608 0 -12 11 -31 24 -43 29 -25 27 -79 -3 -69 -11 3 -11 0 4 -11 11 -8
26 -20 32 -26 15 -12 341 -12 573 1 192 10 689 16 684 7 -7 -10 37 5 84 30 53 28 85 90 80 155 l-3 42 -24 -65 c-29 -78 -65 -113 -121 -116 -39 -2 -39 -2 -25 19 8 12 15 29 15 38 0 9 7 22 15 29 8 7 15 23 15 35 0 26 -85 254 -209 560 -117 288 -272 682 -321 815 -44 119 -70 160 -102 160 -16 0 -18 5 -13 34 4 20 2 36 -4 40 -7 4 -11 -1 -11 -13z m-30 -61 c0 -10 -4 -21 -9 -24 -12 -8 -22 20 -15 39 8 19 24 9 24 -15z m50 -37 c0 -7 -4 -13 -9 -13 -5 0 -11 6 -14 13 -3 8 1 14 9 14 8 0 14 -6 14 -14z m-5 -66 c8 -13 64 -144 124 -293 60 -148 161 -395 224 -549 228 -554 244 -612 169 -632 -15 -5 -266 -8 -559 -8 -611 0 -576 -5 -555 83 6 27 40 128 76 223 87 235 434 1115 457 1162 22 42 42 47 64 14z m-295 -497 c0 -5 -2 -10 -4 -10 -3 0 -8 5 -11 10 -3 6 -1 10 4 10 6 0 11 -4 11 -10z m-64 -136 c-8 -21 -15 -34 -15 -28 -1 15 20 76 25 71 2 -2 -2 -21 -10 -43z m-21 -61 c-4 -10 -12 -31 -18 -48 -5 -16 -19 -52 -30 -80 -11 -27 -23 -59 -27 -70 -19 -50 -73 -191 -116 -305 -51 -138 -63 -158 -59 -108 5 53 104 321 215 576 12 28 27 52 32 52 6 0 7 -8 3 -17z m990 -773 c8 -13 -39 -32 -85 -36 -19 -1 -71 -8 -115 -14 -98 -15 -863 -8 -910 8 -21 7 114 11 476 11 527 1 599 4 599 27 0 16 26 19 35 4z m-1215 -15 c10 -12 10 -15 -4 -15 -9 0 -16 6 -16 13 -1 7 -5 6 -13 -5 -8 -10 -18 -13 -26 -8 -10 6 -9 10 5 19 26 14 39 14 54 -4z"/>
<path d="M2256 4225 c-9 -26 -7 -32 5 -12 6 10 9 21 6 23 -2 3 -7 -2 -11 -11z"/>
<path d="M2379 4193 c-11 -25 -18 -50 -17 -54 2 -5 13 16 25 46 26 67 20 73 -8 8z"/>
<path d="M2236 4175 c-9 -26 -7 -32 5 -12 6 10 9 21 6 23 -2 3 -7 -2 -11 -11z"/>
<path d="M2216 4125 c-9 -26 -7 -32 5 -12 6 10 9 21 6 23 -2 3 -7 -2 -11 -11z"/>
<path d="M2341 4093 c-10 -26 -10 -27 4 -9 8 11 15 23 15 28 0 15 -7 8 -19 -19z"/>
<path d="M2186 4055 c-9 -26 -7 -32 5 -12 6 10 9 21 6 23 -2 3 -7 -2 -11 -11z"/>
<path d="M2321 4053 c-1 -6 -4 -20 -7 -30 -5 -17 -5 -17 6 0 6 10 9 23 6 30 -3 9 -5 9 -5 0z"/>
<path d="M2166 4005 c-9 -26 -7 -32 5 -12 6 10 9 21 6 23 -2 3 -7 -2 -11 -11z"/>
<path d="M3836 4007 c3 -10 9 -15 12 -12 3 3 0 11 -7 18 -10 9 -11 8 -5 -6z"/>
<path d="M3855 3963 c5 -23 172 -441 213 -533 9 -19 15 -41 13 -49 -1 -7 2 -11 7 -8 4 3 14 -10 21 -29 7 -20 15 -34 17 -32 4 5 -50 165 -76 223 -10 22 -30 69 -45 105 -15 36 -33 79 -40 95 -44 99 -55 124 -55 129 0 9 -50 116 -55 116 -2 0 -2 -8 0 -17z"/>
<path d="M2146 3955 c-9 -26 -7 -32 5 -12 6 10 9 21 6 23 -2 3 -7 -2 -11 -11z"/>
<path d="M2126 3905 c-9 -26 -7 -32 5 -12 6 10 9 21 6 23 -2 3 -7 -2 -11 -11z"/>
<path d="M2096 3835 c-9 -26 -7 -32 5 -12 6 10 9 21 6 23 -2 3 -7 -2 -11 -11z"/>
<path d="M2226 3815 c-9 -26 -7 -32 5 -12 6 10 9 21 6 23 -2 3 -7 -2 -11 -11z"/>
<path d="M2076 3785 c-9 -26 -7 -32 5 -12 6 10 9 21 6 23 -2 3 -7 -2 -11 -11z"/>
<path d="M2056 3735 c-9 -26 -7 -32 5 -12 6 10 9 21 6 23 -2 3 -7 -2 -11 -11z"/>
<path d="M4060 3567 c0 -14 133 -338 136 -334 5 4 -122 326 -131 335 -3 3 -5 2 -5 -1z"/>
<path d="M3236 3455 c4 -16 17 -54 30 -83 13 -29 24 -61 24 -71 0 -10 8 -40 19 -67 29 -76 52 -146 62 -184 5 -19 12 -44 15 -55 3 -11 6 -26 6 -32 2 -24 18 -13 18 12 0 40 -48 216 -75 273 -14 29 -25 56 -25 61 0 5 -8 26 -17 47 -9 22 -18 45 -19 52 -1 7 -12 27 -23 45 l-22 32 7 -30z"/>
<path d="M2025 3118 c-26 -68 -51 -132 -56 -143 -24 -57 -50 -156 -54 -205 -7 -75 3 -50 60 145 26 88 53 174 60 190 21 46 46 127 41 132 -2 2 -25 -51 -51 -119z"/>
<path d="M4200 3215 c0 -5 5 -17 10 -25 5 -8 10 -10 10 -5 0 6 -5 17 -10 25 -5 8 -10 11 -10 5z"/>
<path d="M4290 2985 c0 -5 5 -17 10 -25 5 -8 10 -10 10 -5 0 6 -5 17 -10 25 -5 8 -10 11 -10 5z"/>
<path d="M4310 2935 c0 -5 5 -17 10 -25 5 -8 10 -10 10 -5 0 6 -5 17 -10 25 -5 8 -10 11 -10 5z"/>
<path d="M4330 2888 c0 -21 448 -1152 530 -1338 117 -267 198 -355 398 -431 35 -13 68 -33 74 -43 9 -16 7 -18 -10 -14 -15 4 -19 2 -15 -8 7 -20 4 -19 -94 26 -83 37 -93 37 -24 -2 58 -32 28 -54 -86 -63 -36 -2 -68 -6 -70 -8 -7 -8 171 -18 406 -23 276 -6 271 -9 158 65 -51 33 -78 42 -157 56 -216 36 -330 83 -405 167 -84 94 -162 268 -502 1123 -182 457 -203 508 -203 493z"/>
<path d="M1887 2513 c-10 -9 -9 -23 2 -23 5 0 11 7 15 15 5 15 -5 20 -17 8z"/>
<path d="M1817 2441 c-33 -9 -89 -58 -119 -104 -34 -52 -143 -275 -193 -397 -14 -36 -34 -83 -44 -105 -19 -43 -131 -326 -161 -410 -10 -27 -31 -81 -46 -120 -23 -58 -28 -86 -29 -157 0 -69 -3 -88 -15 -92 -8 -2 6 -4 32 -5 64 -1 78 6 78 40 0 30 18 67 54 107 l20 22 -23 21 c-18 17 -21 29 -17 58 10 71 28 147 42 178 8 17 17 45 20 62 4 17 10 34 15 37 5 2 14 24 20 47 11 44 89 250 113 302 8 17 24 53 36 80 51 118 122 247 151 276 55 55 130 108 146 102 10 -4 14 -2 10 4 -4 6 11 16 33 23 31 10 136 12 502 6 255 -3 557 -6 671 -7 232 0 257 -5 395 -73 40 -20 75 -36 78 -36 12 0 94 -94 94 -107 0 -7 4 -13 8 -13 5 0 21 -22 35 -49 15 -27 33 -54 41 -60 21 -18 156 -297 156 -323 1 -13 9 -41 19 -62 11 -22 17 -46 14 -53 -3 -7 -1 -13 5 -13 8 0 27 -49 22 -58 -1 -2 6 -15 16 -30 10 -15 21 -43 25 -62 3 -19 21 -73 38 -120 35 -95 38 -122 16 -140 -8 -7 -15 -22 -15 -34 0 -33 -89 -96 -136 -96 -12 0 -27 -7 -32 -17 -14 -25 -46 -9 -38 20 3 12 6 38 6 58 0 28 5 38 20 42 17 4 19 11 14 54 -8 65 -32 151 -45 158 -20 13 -23 -5 -6 -39 8 -19 19 -51 23 -71 6 -33 4 -37 -12 -33 -11 2 -25 21 -35 48 l-17 45 1 -42 c3 -102 -108 -151 -437 -192 -100 -13 -162 -25 -167 -33 -10 -16 -10 -133 1 -208 l7 -55 2 65 c0 41 7 74 16 87 22 31 89 58 218 89 62 14 153 37 202 51 50 14 99 26 109 28 11 1 32 16 47 34 15 18 32 30 38 27 18 -12 12 -34 -10 -41 -11 -4 -46 -25 -77 -46 -30 -21 -61 -39 -67 -39 -7 0 -20 -10 -31 -21 -10 -12 -34 -28 -51 -35 -26 -11 -203 -29 -338 -34 -18 -1 -18 -2 3 -10 21 -9 22 -14 16 -58 -3 -26 -1 -65 4 -85 10 -34 9 -37 -11 -38 -17 -1 -16 -3 8 -10 32 -10 2223 -15 2233 -5 3 3 -465 6 -1039 6 -678 0 -1039 4 -1029 10 9 6 132 10 296 10 306 0 494 8 494 22 0 4 -10 9 -22 10 -36 2 109 15 186 17 86 1 196 20 196 33 0 5 -4 6 -10 3 -6 -4 -10 10 -10 34 l0 40 153 4 c83 2 -201 3 -633 3 -462 -1 -721 1 -630 6 85 4 254 12 375 17 121 6 234 14 250 20 l30 9 -27 1 c-37 1 -80 19 -74 30 4 5 0 12 -6 14 -9 4 -8 6 3 6 8 1 25 21 37 46 12 25 26 45 30 45 28 0 129 -44 163 -71 51 -40 145 -53 318 -45 191 10 185 2 88 110 -50 54 -101 123 -127 171 -24 44 -67 117 -97 163 -29 46 -85 140 -125 210 -39 70 -77 134 -84 142 -7 8 -31 49 -55 90 -23 41 -45 77 -48 80 -4 3 -34 50 -66 105 -118 199 -145 227 -275 283 -66 29 -179 35 -720 38 -305 2 -707 5 -893 7 -185 1 -343 0 -350 -2z m1561 -1648 c-10 -2 -26 -2 -35 0 -10 3 -2 5 17 5 19 0 27 -2 18 -5z"/>
<path d="M1987 2379 c-75 -6 -116 -18 -66 -20 18 0 13 -4 -21 -17 -25 -10 -45 -22 -45 -27 0 -6 -4 -16 -8 -22 -6 -9 -3 -11 10 -7 17 5 17 5 1 -6 -10 -6 -18 -16 -18 -23 0 -7 -9 -30 -19 -52 -29 -60 -204 -547 -221 -615 -4 -19 -20 -77 -34 -128 -14 -52 -24 -98 -21 -103 5 -7 -10 -37 -32 -68 -2 -2 -11 3 -22 13 -18 16 -19 16 -23 -6 -3 -13 -9 -31 -12 -40 -6 -12 -2 -17 16 -20 15 -2 29 -15 40 -39 9 -20 38 -55 64 -78 47 -41 51 -51 13 -30 -19 10 -20 9 -9 -10 22 -41 -10 -55 -41 -18 -11 12 -19 18 -18 12 5 -40 -25 -51 -166 -62 l-100 -7 85 -7 c128 -10 810 -32 816 -26 3 3 -34 8 -83 12 -151 11 -211 23 -285 56 -97 45 -72 47 41 4 51 -20 100 -35 109 -33 8 2 -48 25 -125 51 -143 49 -166 64 -207 135 -10 17 -4 14 59 -29 59 -40 102 -55 287 -104 227 -61 222 -59 214 -95 -3 -17 -1 -30 4 -30 6 0 10 -28 11 -62 l1 -63 15 35 c27 59 33 102 27 172 l-6 67 -52 10 c-28 5 -91 15 -141 21 -113 14 -260 52 -324 84 -52 27 -111 89 -111 118 0 9 -8 22 -17 27 -14 8 -15 12 -5 19 7 5 20 38 28 73 13 60 109 382 156 529 35 107 78 216 93 236 8 10 1 -14 -16 -54 -17 -41 -29 -76 -26 -78 2 -2 21 36 42 86 23 55 49 100 66 115 25 20 26 24 11 29 -9 2 12 3 48 1 47 -3 57 -2 35 4 -17 5 249 8 615 8 355 0 625 -4 600 -8 -33 -6 -24 -7 35 -3 56 3 76 1 65 -6 -11 -8 -7 -9 14 -4 20 5 27 4 22 -4 -5 -8 -1 -10 11 -5 10 3 15 2 10 -2 -4 -5 4 -20 18 -35 14 -14 41 -55 60 -91 19 -35 35 -60 35 -56 0 4 -15 36 -32 70 -44 83 -44 84 -22 67 18 -15 18 -14 2 10 -11 17 -24 24 -40 22 -18 -1 -20 0 -8 7 15 10 -1 19 -70 41 l-25 8 25 1 c14 0 48 -12 75 -28 44 -25 57 -41 102 -122 44 -82 98 -200 172 -384 11 -27 20 -43 20 -35 1 19 -43 133 -103 268 -87 193 -114 240 -159 274 -23 17 -33 27 -22 23 11 -4 31 -9 45 -10 14 -1 34 -6 44 -10 14 -6 17 -5 12 3 -7 12 -76 51 -106 61 -8 2 -244 6 -525 8 -280 1 -577 4 -660 5 -82 2 -185 0 -228 -3z m-92 -59 c-3 -5 -14 -10 -23 -10 -15 0 -15 2 -2 10 20 13 33 13 25 0z m1520 -60 c3 -5 1 -10 -4 -10 -6 0 -11 5 -11 10 0 6 2 10 4 10 3 0 8 -4 11 -10z m-1858 -1025 c22 -11 32 -24 35 -45 3 -17 0 -30 -5 -30 -5 0 -3 -8 4 -17 8 -9 -3 -4 -24 12 -35 26 -57 59 -57 86 0 13 12 11 47 -6z m651 -256 c-6 -16 -12 -28 -14 -26 -5 5 13 57 20 57 3 0 0 -14 -6 -31z"/>
<path d="M3469 2286 c27 -29 33 -32 25 -13 -2 7 -14 19 -27 26 -21 13 -21 12 2 -13z"/>
<path d="M1803 2248 c-15 -18 -35 -58 -29 -58 2 0 13 16 25 35 20 35 22 46 4 23z"/>
<path d="M1732 2112 c-56 -122 -146 -361 -139 -369 2 -2 30 65 62 149 32 84 71 182 87 217 15 35 27 66 25 68 -2 1 -18 -27 -35 -65z"/>
<path d="M3491 2085 c0 -5 8 -26 19 -45 11 -19 19 -30 19 -25 0 6 -8 26 -19 45 -11 19 -19 31 -19 25z"/>
<path d="M3530 1995 c0 -5 5 -17 10 -25 5 -8 10 -10 10 -5 0 6 -5 17 -10 25 -5 8 -10 11 -10 5z"/>
<path d="M3551 1945 c0 -5 6 -21 14 -35 8 -14 14 -20 14 -15 0 6 -6 21 -14 35 -8 14 -14 21 -14 15z"/>
<path d="M3584 1870 c9 -32 39 -101 43 -97 2 3 -8 29 -22 58 -14 30 -23 47 -21 39z"/>
<path d="M3630 1755 c0 -5 5 -17 10 -25 5 -8 10 -10 10 -5 0 6 -5 17 -10 25 -5 8 -10 11 -10 5z"/>
<path d="M3700 1585 c0 -5 5 -17 10 -25 5 -8 10 -10 10 -5 0 6 -5 17 -10 25 -5 8 -10 11 -10 5z"/>
<path d="M3776 1397 c3 -10 9 -15 12 -12 3 3 0 11 -7 18 -10 9 -11 8 -5 -6z"/>
<path d="M4958 1254 c10 -17 124 -114 147 -125 11 -6 7 0 -10 13 -50 38 -101 90 -83 84 27 -8 31 11 6 28 -27 18 -70 18 -60 0z"/>
<path d="M1387 1123 c-11 -10 -8 -43 3 -43 6 0 10 11 10 25 0 26 -2 29 -13 18z"/>
<path d="M3700 1105 c-25 -13 -41 -24 -37 -25 11 0 87 39 87 45 0 7 0 7 -50 -20z"/>
<path d="M3575 1054 c-33 -14 -80 -32 -105 -39 -53 -16 -24 -19 38 -5 40 10 159 70 137 70 -5 0 -37 -12 -70 -26z"/>
<path d="M670 1048 c-25 -11 -72 -29 -105 -39 l-60 -19 55 6 c84 9 119 20 145 48 29 31 24 32 -35 4z"/>
<path d="M1968 1003 c6 -2 18 -2 25 0 6 3 1 5 -13 5 -14 0 -19 -2 -12 -5z"/>
<path d="M1398 963 c70 -2 122 -8 122 -13 0 -6 9 -10 20 -10 11 0 20 -4 20 -10 0 -5 -9 -10 -20 -10 -11 0 -20 -7 -20 -15 0 -8 -7 -15 -15 -15 -8 0 -15 -7 -15 -15 0 -12 13 -15 55 -15 30 0 55 -4 55 -10 0 -5 13 -10 30 -10 28 0 59 -4 245 -34 71 -11 -4 -14 -675 -23 l-755 -9 820 -1 c451 -1 831 2 845 6 15 4 20 10 13 14 -7 4 -10 35 -8 85 l3 79 -285 6 c-158 4 -347 6 -422 5 l-136 -2 123 -3z m605 -170 c-7 -2 -21 -2 -30 0 -10 3 -4 5 12 5 17 0 24 -2 18 -5z m44 -9 c-3 -3 -12 -4 -19 -1 -8 3 -5 6 6 6 11 1 17 -2 13 -5z"/>
<path d="M5693 880 c0 -92 0 -93 10 -42 7 35 7 66 0 95 -10 38 -11 33 -10 -53z"/>
</g>
</svg>
